<svg xmlns="http://www.w3.org/2000/svg" data-name="Layer 1" viewBox="0 0 512 512"><path d="M407.65,189.05h55.7a7.5,7.5,0,0,0,7.5-7.5V138.31a7.5,7.5,0,0,0-7.5-7.5h-55.7a7.5,7.5,0,0,0-7.5,7.5v43.24A7.5,7.5,0,0,0,407.65,189.05Zm7.5-43.24h40.7v28.24h-40.7ZM48.65,335.53h55.7a7.5,7.5,0,0,0,7.5-7.5V284.79a7.5,7.5,0,0,0-7.5-7.5H48.65a7.5,7.5,0,0,0-7.5,7.5V328A7.5,7.5,0,0,0,48.65,335.53Zm7.5-43.24h40.7v28.24H56.15Zm-7.5-103.24h55.7a7.5,7.5,0,0,0,7.5-7.5V138.31a7.5,7.5,0,0,0-7.5-7.5H48.65a7.5,7.5,0,0,0-7.5,7.5v43.24A7.5,7.5,0,0,0,48.65,189.05Zm7.5-43.24h40.7v28.24H56.15ZM504.5,497H501V82.5A22.52,22.52,0,0,0,478.5,60H385V22.5A22.52,22.52,0,0,0,362.5,0h-213A22.52,22.52,0,0,0,127,22.5V60H33.5A22.52,22.52,0,0,0,11,82.5V497H7.5a7.5,7.5,0,0,0,0,15h497a7.5,7.5,0,0,0,0-15ZM127,497H26V115.81H127Zm0-396.19H26V82.5A7.5,7.5,0,0,1,33.5,75H127ZM248.5,497H187V388.5a7.5,7.5,0,0,1,7.5-7.5h54Zm76.5,0H263.5V381h54a7.5,7.5,0,0,1,7.5,7.5Zm45,0H340V388.5A22.52,22.52,0,0,0,317.5,366h-123A22.52,22.52,0,0,0,172,388.5V497H142V60H370Zm0-452H142V22.5a7.5,7.5,0,0,1,7.5-7.5h213a7.5,7.5,0,0,1,7.5,7.5ZM486,497H385V115.81H486Zm0-396.19H385V75h93.5a7.5,7.5,0,0,1,7.5,7.5ZM48.65,262.29h55.7a7.5,7.5,0,0,0,7.5-7.5V211.55a7.5,7.5,0,0,0-7.5-7.5H48.65a7.5,7.5,0,0,0-7.5,7.5v43.24A7.5,7.5,0,0,0,48.65,262.29Zm7.5-43.24h40.7v28.24H56.15Zm-7.5,189.71h55.7a7.5,7.5,0,0,0,7.5-7.5V358a7.5,7.5,0,0,0-7.5-7.5H48.65a7.5,7.5,0,0,0-7.5,7.5v43.23A7.5,7.5,0,0,0,48.65,408.76Zm7.5-43.23h40.7v28.23H56.15ZM248,158.34H229.5a7.5,7.5,0,0,0-6,12.84l41.6,40.41a7.5,7.5,0,0,0,10.45-10.76l-28.29-27.49H248a30.73,30.73,0,0,0,29.82-23.62H284a7.5,7.5,0,0,0,0-15h-6.33a30.6,30.6,0,0,0-3.31-7.87H284a7.5,7.5,0,0,0,0-15H229.08a7.5,7.5,0,0,0,0,15H248a15.62,15.62,0,0,1,13.53,7.87H229.08a7.5,7.5,0,0,0,0,15h32.86A15.64,15.64,0,0,1,248,158.34ZM274.74,309.2,263.5,320.44v-57a7.5,7.5,0,0,0-15,0v57L237.26,309.2a7.5,7.5,0,1,0-10.6,10.61l24,24c.18.18.37.35.56.51l.23.17.36.26.3.19.33.19a3.13,3.13,0,0,0,.32.15,2.6,2.6,0,0,0,.34.16l.32.12.37.13.33.08.39.1.38.06.34.05c.25,0,.49,0,.74,0s.49,0,.74,0l.34-.05.38-.06.39-.1.33-.08.37-.13.32-.12a2.6,2.6,0,0,0,.34-.16,3.13,3.13,0,0,0,.32-.15l.33-.19.3-.19.36-.26.23-.17c.19-.16.38-.33.56-.51l24-24a7.5,7.5,0,1,0-10.6-10.61ZM407.65,482h55.7a7.5,7.5,0,0,0,7.5-7.5V431.26a7.5,7.5,0,0,0-7.5-7.5h-55.7a7.5,7.5,0,0,0-7.5,7.5V474.5A7.5,7.5,0,0,0,407.65,482Zm7.5-43.24h40.7V467h-40.7ZM256.26,241.7a82.76,82.76,0,1,0-58.51-24.24A82.21,82.21,0,0,0,256.26,241.7Zm-47.9-130.65A67.72,67.72,0,1,1,188.51,159,67.28,67.28,0,0,1,208.36,111.05ZM407.65,262.29h55.7a7.5,7.5,0,0,0,7.5-7.5V211.55a7.5,7.5,0,0,0-7.5-7.5h-55.7a7.5,7.5,0,0,0-7.5,7.5v43.24A7.5,7.5,0,0,0,407.65,262.29Zm7.5-43.24h40.7v28.24h-40.7Zm-7.5,116.48h55.7a7.5,7.5,0,0,0,7.5-7.5V284.79a7.5,7.5,0,0,0-7.5-7.5h-55.7a7.5,7.5,0,0,0-7.5,7.5V328A7.5,7.5,0,0,0,407.65,335.53Zm7.5-43.24h40.7v28.24h-40.7ZM48.65,482h55.7a7.5,7.5,0,0,0,7.5-7.5V431.26a7.5,7.5,0,0,0-7.5-7.5H48.65a7.5,7.5,0,0,0-7.5,7.5V474.5A7.5,7.5,0,0,0,48.65,482Zm7.5-43.24h40.7V467H56.15Zm351.5-30h55.7a7.5,7.5,0,0,0,7.5-7.5V358a7.5,7.5,0,0,0-7.5-7.5h-55.7a7.5,7.5,0,0,0-7.5,7.5v43.23A7.5,7.5,0,0,0,407.65,408.76Zm7.5-43.23h40.7v28.23h-40.7Z" fill="#39364e" class="color000000 svgShape"></path></svg>